<?xml version="1.0" encoding="UTF-8" standalone="no"?>
<svg
   xmlns:osb="http://www.openswatchbook.org/uri/2009/osb"
   xmlns:dc="http://purl.org/dc/elements/1.1/"
   xmlns:cc="http://creativecommons.org/ns#"
   xmlns:rdf="http://www.w3.org/1999/02/22-rdf-syntax-ns#"
   xmlns:svg="http://www.w3.org/2000/svg"
   xmlns="http://www.w3.org/2000/svg"
   xmlns:sodipodi="http://sodipodi.sourceforge.net/DTD/sodipodi-0.dtd"
   xmlns:inkscape="http://www.inkscape.org/namespaces/inkscape"
   version="1.1"
   width="280"
   height="130"
   viewBox="0 0 151.20 69.27"
   enable-background="new 0 0 151.20 69.27"
   xml:space="preserve"
   id="svg4708"
   inkscape:version="0.91 r13725"
   sodipodi:docname="SL_logo_text.svg"><metadata
     id="metadata4720"><rdf:RDF><cc:Work
         rdf:about=""><dc:format>image/svg+xml</dc:format><dc:type
           rdf:resource="http://purl.org/dc/dcmitype/StillImage" /><dc:title /></cc:Work></rdf:RDF></metadata><defs
     id="defs4718"><linearGradient
       id="linearGradient7264"
       osb:paint="solid"><stop
         style="stop-color:#ffb505;stop-opacity:1;"
         offset="0"
         id="stop7266" /></linearGradient></defs><sodipodi:namedview
     pagecolor="#ffffff"
     bordercolor="#666666"
     borderopacity="1"
     objecttolerance="10"
     gridtolerance="10"
     guidetolerance="10"
     inkscape:pageopacity="0"
     inkscape:pageshadow="2"
     inkscape:window-width="1920"
     inkscape:window-height="1001"
     id="namedview4716"
     showgrid="false"
     inkscape:zoom="5.0857144"
     inkscape:cx="73.618118"
     inkscape:cy="101.01393"
     inkscape:window-x="-9"
     inkscape:window-y="-9"
     inkscape:window-maximized="1"
     inkscape:current-layer="svg4708" /><path
     fill="#424242"
     fill-opacity="1"
     stroke-width="0.2"
     stroke-linejoin="round"
     stroke="#424242"
     stroke-opacity="1"
     d="M 13.7599,67.9016C 13.7599,68.2714 13.624,68.5922 13.3523,68.8639C 13.086,69.1359 12.7654,69.2719 12.3958,69.2719L 1.36401,69.2719C 0.994476,69.2719 0.673897,69.1359 0.407547,68.8639C 0.135834,68.5922 0,68.2714 0,67.9016L 0,65.2592C 0,64.3457 0.45652,63.8889 1.36943,63.8889C 2.04333,63.8889 2.46722,64.1934 2.64117,64.8025C 2.70639,65.0417 2.73898,65.6179 2.73898,66.5315L 11.021,66.5315L 11.021,59.7131L 1.36943,59.7131C 0.999893,59.7131 0.679321,59.5773 0.407547,59.3054C 0.135834,59.0336 0,58.7128 0,58.343L 0,49.1106C 0,48.7627 0.135834,48.4473 0.407547,48.1646C 0.679321,47.8818 0.999893,47.7405 1.36943,47.7405L 12.3904,47.7405C 12.7599,47.7405 13.0807,47.8818 13.3523,48.1646C 13.624,48.4473 13.7599,48.7627 13.7599,49.1106L 13.7599,51.2638C 13.7599,52.1772 13.3034,52.6339 12.3904,52.6339C 11.4775,52.6339 11.021,52.1772 11.021,51.2638L 11.021,50.4808L 2.73898,50.4808L 2.73898,56.9728L 12.3904,56.9728C 12.7599,56.9728 13.0807,57.1143 13.3523,57.397C 13.624,57.6797 13.7599,57.9951 13.7599,58.343M 31.074,67.7711C 31.074,68.1843 30.949,68.5377 30.699,68.8313C 30.449,69.125 30.1175,69.2719 29.7044,69.2719C 28.7915,69.2719 28.335,68.7715 28.335,67.7711L 28.335,56.4509L 19.7921,56.4509L 19.7921,67.9016C 19.7921,68.2931 19.6562,68.6193 19.3845,68.8804C 19.1128,69.1412 18.7922,69.2719 18.4226,69.2719C 18.0313,69.2719 17.7054,69.1412 17.4444,68.8804C 17.1836,68.6193 17.0532,68.2931 17.0532,67.9016L 17.0532,49.1106C 17.0532,48.1971 17.5097,47.7405 18.4226,47.7405C 19.3357,47.7405 19.7921,48.1971 19.7921,49.1106L 19.7921,53.7106L 28.1394,53.7106C 29.0307,53.7106 29.7425,53.9606 30.2751,54.4608C 30.8076,54.9611 31.074,55.6678 31.074,56.5814M 48.1924,66.8577C 48.1924,67.5319 47.9641,68.1028 47.5076,68.5704C 47.0512,69.038 46.4751,69.2719 45.7795,69.2719L 36.7801,69.2719C 36.0846,69.2719 35.5085,69.0435 35.052,68.5867C 34.5954,68.13 34.3673,67.5536 34.3673,66.8577L 34.3673,56.1246C 34.3673,55.5156 34.6118,54.9611 35.1009,54.4608C 35.59,53.9606 36.1497,53.7106 36.7801,53.7106L 45.7795,53.7106C 46.4968,53.7106 47.0783,53.9388 47.5239,54.3956C 47.9695,54.8523 48.1924,55.4286 48.1924,56.1246M 45.4534,66.5315L 45.4534,56.4509L 37.1062,56.4509L 37.1062,66.5315M 65.539,57.9189C 65.539,58.8324 65.0825,59.2891 64.1695,59.2891C 63.4739,59.2891 63.0392,58.9629 62.8652,58.3104C 62.8218,58.1146 62.8,57.4948 62.8,56.4509L 59.246,56.4509C 58.6372,56.4509 58.333,56.7552 58.333,57.3643L 58.333,66.5315L 61.6914,66.5315C 62.6044,66.5315 63.0609,66.9882 63.0609,67.9016C 63.0609,68.8151 62.6044,69.2719 61.6914,69.2719L 52.8225,69.2719C 51.9095,69.2719 51.4531,68.8151 51.4531,67.9016C 51.4531,66.9882 51.9095,66.5315 52.8225,66.5315L 55.5941,66.5315L 55.5941,56.4509L 52.8225,56.4509C 51.9095,56.4509 51.4531,55.9941 51.4531,55.0807C 51.4531,54.1672 51.9095,53.7106 52.8225,53.7106L 56.9635,53.7106C 57.3112,53.7106 57.6265,53.8411 57.9091,54.1021C 58.2569,53.8411 58.5612,53.7106 58.822,53.7106L 64.1695,53.7106C 64.539,53.7106 64.8597,53.8464 65.1314,54.1183C 65.4031,54.3901 65.539,54.7109 65.539,55.0807M 82.1683,66.8577C 82.1683,67.5101 81.9237,68.0756 81.4346,68.5541C 80.9455,69.0326 80.3858,69.2719 79.7554,69.2719L 75.4187,69.2719C 74.8102,69.2719 74.2558,69.0216 73.7558,68.5215C 73.2559,68.0212 73.0059,67.4666 73.0059,66.8577L 73.0059,56.4509L 70.6256,56.4509C 69.7126,56.4509 69.2562,55.9941 69.2562,55.0807C 69.2562,54.1672 69.7126,53.7106 70.6256,53.7106L 73.0059,53.7106L 73.0059,49.078C 73.0059,48.1646 73.4624,47.7079 74.3753,47.7079C 75.2883,47.7079 75.7448,48.1646 75.7448,49.078L 75.7448,53.7106L 80.7989,53.7106C 81.7118,53.7106 82.1683,54.1672 82.1683,55.0807C 82.1683,55.9941 81.7118,56.4509 80.7989,56.4509L 75.7448,56.4509L 75.7448,66.5315L 79.4293,66.5315L 79.4293,63.8889C 79.4293,62.9756 79.8858,62.5188 80.7989,62.5188C 81.7118,62.5188 82.1683,62.9756 82.1683,63.8889M 98.7976,67.9016C 98.7976,68.8151 98.3411,69.2719 97.4282,69.2719L 88.4288,69.2719C 87.5157,69.2719 87.0593,68.8151 87.0593,67.9016C 87.0593,66.9882 87.5157,66.5315 88.4288,66.5315L 91.3959,66.5315L 91.3959,50.4808L 89.5048,50.4808C 88.5918,50.4808 88.1354,50.0242 88.1354,49.1106C 88.1354,48.1971 88.5918,47.7405 89.5048,47.7405L 91.722,47.7405C 92.4393,47.7405 93.0208,47.9634 93.4664,48.4092C 93.9121,48.8551 94.1349,49.4369 94.1349,50.1547L 94.1349,66.5315L 97.4282,66.5315C 98.3411,66.5315 98.7976,66.9882 98.7976,67.9016 Z M 111.971,50.285C 111.971,50.9594 111.726,51.5411 111.237,52.0304C 110.748,52.5198 110.166,52.7644 109.493,52.7644C 108.797,52.7644 108.205,52.5198 107.715,52.0304C 107.226,51.5411 106.982,50.9594 106.982,50.285C 106.982,49.5891 107.226,48.9965 107.715,48.5071C 108.205,48.0178 108.797,47.7731 109.493,47.7731C 110.166,47.7731 110.748,48.0178 111.237,48.5071C 111.726,48.9965 111.971,49.5891 111.971,50.285 Z M 116.34,67.9016C 116.34,68.8151 115.883,69.2719 114.97,69.2719L 105.319,69.2719C 104.406,69.2719 103.949,68.8151 103.949,67.9016C 103.949,66.9882 104.406,66.5315 105.319,66.5315L 108.808,66.5315L 108.808,56.4509L 105.319,56.4509C 104.406,56.4509 103.949,55.9941 103.949,55.0807C 103.949,54.1672 104.406,53.7106 105.319,53.7106L 110.177,53.7106C 110.525,53.7106 110.84,53.8464 111.123,54.1183C 111.406,54.3901 111.547,54.7109 111.547,55.0807L 111.547,66.5315L 114.97,66.5315C 115.883,66.5315 116.34,66.9882 116.34,67.9016 Z M 134.273,67.8689C 134.273,68.7825 133.817,69.2393 132.904,69.2393C 131.991,69.2393 131.535,68.7825 131.535,67.8689L 131.535,57.0381C 131.535,56.6466 131.393,56.4509 131.111,56.4509L 123.187,56.4509L 123.187,67.8689C 123.187,68.7825 122.731,69.2393 121.818,69.2393C 120.905,69.2393 120.448,68.7825 120.448,67.8689L 120.448,53.7106L 131.111,53.7106C 131.98,53.7106 132.725,54.0422 133.344,54.7056C 133.964,55.3689 134.273,56.1464 134.273,57.0381M 151.196,67.8689C 151.196,68.2388 151.06,68.5651 150.789,68.8477C 150.517,69.1304 150.196,69.2719 149.827,69.2719C 149.566,69.2719 149.316,69.1957 149.077,69.0435L 140.697,63.5627L 140.697,67.8961C 140.697,68.8151 140.24,69.2719 139.327,69.2719C 138.414,69.2719 137.958,68.8151 137.958,67.9016L 137.958,49.1432C 137.958,48.2297 138.414,47.7731 139.327,47.7731C 140.24,47.7731 140.697,48.2297 140.697,49.1432L 140.697,59.5283L 149.077,54.2977C 149.316,54.1672 149.566,54.1021 149.827,54.1021C 150.196,54.1021 150.517,54.2379 150.789,54.5098C 151.06,54.7817 151.196,55.1024 151.196,55.4722C 151.196,55.9724 150.979,56.3639 150.544,56.6466L 142.664,61.5347L 150.544,66.7272C 150.979,67.0099 151.196,67.3905 151.196,67.8689 Z "
     id="path4714" /><path
     style="fill:#ffb606;fill-opacity:0;stroke:#ffb606;stroke-width:2.33044958;stroke-miterlimit:4;stroke-dasharray:none;stroke-opacity:0"
     d="m 131.39483,78.960674 c 0.0703,-1.485784 41.18171,-77.1228921 42.08213,-77.4230304 0.79487,-0.2649561 16.0736,24.7853684 16.0736,26.3535534 0,0.470878 -3.00843,5.99039 -6.68539,12.265581 -3.67697,6.275193 -6.68539,11.777547 -6.68539,12.227455 0,0.534824 4.71145,0.818014 13.60936,0.818014 l 13.60937,0 7.23333,12.444024 c 3.97833,6.844213 7.23333,12.861067 7.23333,13.370786 0,0.700105 -10.57965,0.926763 -43.25843,0.926763 -34.1072,0 -43.24859,-0.207978 -43.21191,-0.983146 z"
     id="path4722"
     inkscape:connector-curvature="0"
     transform="matrix(0.53999997,0,0,0.53999994,0,-0.46499766)" /><path
     style="fill:#ffcc00;fill-opacity:0;stroke:#ffb606;stroke-width:2.33044958;stroke-miterlimit:4;stroke-dasharray:none;stroke-opacity:0"
     d="m 131.39483,78.960674 c 0.0703,-1.485784 41.18171,-77.1228921 42.08213,-77.4230304 0.79487,-0.2649561 16.0736,24.7853684 16.0736,26.3535534 0,0.470878 -3.00843,5.99039 -6.68539,12.265581 -3.67697,6.275193 -6.68539,11.777547 -6.68539,12.227455 0,0.534824 4.71145,0.818014 13.60936,0.818014 l 13.60937,0 7.23333,12.444024 c 3.97833,6.844213 7.23333,12.861067 7.23333,13.370786 0,0.700105 -10.57965,0.926763 -43.25843,0.926763 -34.1072,0 -43.24859,-0.207978 -43.21191,-0.983146 z"
     id="path4724"
     inkscape:connector-curvature="0"
     transform="matrix(0.53999997,0,0,0.53999994,0,-0.46499766)" /><path
     style="fill:#ffcc00;fill-opacity:0;stroke:#ffb606;stroke-width:2.33044958;stroke-miterlimit:4;stroke-dasharray:none;stroke-opacity:0"
     d="m 131.39483,78.960674 c 0.0703,-1.485784 41.18171,-77.1228921 42.08213,-77.4230304 0.79487,-0.2649561 16.0736,24.7853684 16.0736,26.3535534 0,0.470878 -3.00843,5.99039 -6.68539,12.265581 -3.67697,6.275193 -6.68539,11.777547 -6.68539,12.227455 0,0.534824 4.71145,0.818014 13.60936,0.818014 l 13.60937,0 7.23333,12.444024 c 3.97833,6.844213 7.23333,12.861067 7.23333,13.370786 0,0.700105 -10.57965,0.926763 -43.25843,0.926763 -34.1072,0 -43.24859,-0.207978 -43.21191,-0.983146 z"
     id="path4726"
     inkscape:connector-curvature="0"
     transform="matrix(0.53999997,0,0,0.53999994,0,-0.46499766)" /><path
     style="fill:#ffcc00;fill-opacity:0;stroke:#ffb606;stroke-width:2.33044958;stroke-miterlimit:4;stroke-dasharray:none;stroke-opacity:0"
     d="m 131.39483,78.960674 c 0.0703,-1.485784 41.18171,-77.1228921 42.08213,-77.4230304 0.79487,-0.2649561 16.0736,24.7853684 16.0736,26.3535534 0,0.470878 -3.00843,5.99039 -6.68539,12.265581 -3.67697,6.275193 -6.68539,11.777547 -6.68539,12.227455 0,0.534824 4.71145,0.818014 13.60936,0.818014 l 13.60937,0 7.23333,12.444024 c 3.97833,6.844213 7.23333,12.861067 7.23333,13.370786 0,0.700105 -10.57965,0.926763 -43.25843,0.926763 -34.1072,0 -43.24859,-0.207978 -43.21191,-0.983146 z"
     id="path4728"
     inkscape:connector-curvature="0"
     transform="matrix(0.53999997,0,0,0.53999994,0,-0.46499766)" /><path
     style="fill:#ffcc00;fill-opacity:0;stroke:#ffb606;stroke-width:2.33044958;stroke-miterlimit:4;stroke-dasharray:none;stroke-opacity:0"
     d="m 62.351475,78.413804 c 0.220059,-0.841508 3.471054,-6.813727 7.224433,-13.271596 l 6.824325,-11.741581 13.301445,-0.34607 c 7.315794,-0.190337 13.502282,-0.546906 13.747752,-0.792374 0.24546,-0.245468 -2.75608,-5.654063 -6.670103,-12.019101 -3.914023,-6.365038 -7.116406,-11.667854 -7.116406,-11.784037 0,-0.116182 3.510879,-6.187783 7.801953,-13.492446 L 105.26683,1.6853933 134.97213,1.479162 c 17.37637,-0.1206367 30.00617,0.094651 30.43024,0.5187137 0.44225,0.4422486 -2.14568,5.6474446 -6.63646,13.3481773 l -7.36142,12.623233 -14.04482,0.03221 c -13.04259,0.02991 -14.00768,0.130431 -13.52441,1.408615 0.28623,0.757023 3.33703,6.231351 6.77955,12.165174 l 6.25913,10.788769 -6.88159,13.789882 -6.8816,13.789883 -30.579693,0 c -29.905874,0 -30.570874,-0.03371 -30.179582,-1.530016 z"
     id="path4730"
     inkscape:connector-curvature="0"
     transform="matrix(0.53999997,0,0,0.53999994,0,-0.46499766)" /><path
     style="fill:#ffcc00;fill-opacity:0;stroke:#ffb606;stroke-width:2.33044958;stroke-miterlimit:4;stroke-dasharray:none;stroke-opacity:0"
     d="m 62.351475,78.413804 c 0.220059,-0.841508 3.471054,-6.813727 7.224433,-13.271596 l 6.824325,-11.741581 13.301445,-0.34607 c 7.315794,-0.190337 13.502282,-0.546906 13.747752,-0.792374 0.24546,-0.245468 -2.75608,-5.654063 -6.670103,-12.019101 -3.914023,-6.365038 -7.116406,-11.667854 -7.116406,-11.784037 0,-0.116182 3.510879,-6.187783 7.801953,-13.492446 L 105.26683,1.6853933 134.97213,1.479162 c 17.37637,-0.1206367 30.00617,0.094651 30.43024,0.5187137 0.44225,0.4422486 -2.14568,5.6474446 -6.63646,13.3481773 l -7.36142,12.623233 -14.04482,0.03221 c -13.04259,0.02991 -14.00768,0.130431 -13.52441,1.408615 0.28623,0.757023 3.33703,6.231351 6.77955,12.165174 l 6.25913,10.788769 -6.88159,13.789882 -6.8816,13.789883 -30.579693,0 c -29.905874,0 -30.570874,-0.03371 -30.179582,-1.530016 z"
     id="path4732"
     inkscape:connector-curvature="0"
     transform="matrix(0.53999997,0,0,0.53999994,0,-0.46499766)" /><path
     style="fill:#ffcc00;fill-opacity:0;stroke:#ffb606;stroke-width:2.33044958;stroke-miterlimit:4;stroke-dasharray:none;stroke-opacity:0"
     d="m 131.39483,78.960674 c 0.0703,-1.485784 41.18171,-77.1228921 42.08213,-77.4230304 0.79487,-0.2649561 16.0736,24.7853684 16.0736,26.3535534 0,0.470878 -3.00843,5.99039 -6.68539,12.265581 -3.67697,6.275193 -6.68539,11.777547 -6.68539,12.227455 0,0.534824 4.71145,0.818014 13.60936,0.818014 l 13.60937,0 7.23333,12.444024 c 3.97833,6.844213 7.23333,12.861067 7.23333,13.370786 0,0.700105 -10.57965,0.926763 -43.25843,0.926763 -34.1072,0 -43.24859,-0.207978 -43.21191,-0.983146 z"
     id="path4734"
     inkscape:connector-curvature="0"
     transform="matrix(0.53999997,0,0,0.53999994,0,-0.46499766)" /><path
     style="fill:#ffcc00;fill-opacity:0;stroke:#ffb606;stroke-width:2.33044958;stroke-miterlimit:4;stroke-dasharray:none;stroke-opacity:0"
     d="m 131.39483,78.960674 c 0.0703,-1.485784 41.18171,-77.1228921 42.08213,-77.4230304 0.79487,-0.2649561 16.0736,24.7853684 16.0736,26.3535534 0,0.470878 -3.00843,5.99039 -6.68539,12.265581 -3.67697,6.275193 -6.68539,11.777547 -6.68539,12.227455 0,0.534824 4.71145,0.818014 13.60936,0.818014 l 13.60937,0 7.23333,12.444024 c 3.97833,6.844213 7.23333,12.861067 7.23333,13.370786 0,0.700105 -10.57965,0.926763 -43.25843,0.926763 -34.1072,0 -43.24859,-0.207978 -43.21191,-0.983146 z"
     id="path4736"
     inkscape:connector-curvature="0"
     transform="matrix(0.53999997,0,0,0.53999994,0,-0.46499766)" /><path
     inkscape:connector-curvature="0"
     style="fill:#2bab77;fill-opacity:1;fill-rule:evenodd;stroke:#2bab77;stroke-width:1.41404378;stroke-linejoin:round;stroke-opacity:1"
     d="m 89.003378,0.93198958 -7.778026,13.24254642 -15.947567,0 7.918214,13.691497 -7.050527,14.252091 -32.231204,0 7.722026,-13.242565 15.779953,-0.224643 -8.393591,-13.803686 8.28183,-14.14026642 31.698892,0.225026 z"
     id="path4" /><path
     inkscape:connector-curvature="0"
     style="fill:#f6891f;fill-opacity:1;fill-rule:evenodd;stroke:#f6891f;stroke-width:1.41404378;stroke-linejoin:round;stroke-opacity:1"
     d="M 93.80316,0.83330258 71.476069,42.273136 l 45.772931,0 L 109.52704,28.918381 93.635253,28.806194 101.91744,14.55313 93.80316,0.83330358 Z"
     id="path6" /></svg>